#define xbones_width 22
#define xbones_height 26
static char xbones_bits[] = {
 0x00,0x3e,0x00,0x80,0xc1,0x00,0x40,0x00,0x01,0x40,0x67,0x01,0x40,0xe7,0x01,
 0x40,0x42,0x01,0x8c,0x19,0x01,0x0a,0xd9,0x00,0x15,0x63,0x18,0x2f,0x7f,0x14,
 0x5c,0x5d,0x2e,0xb0,0x22,0x39,0x60,0x9d,0x06,0xc0,0xe6,0x03,0x80,0xfd,0x00,
 0x00,0x7b,0x00,0x00,0x27,0x00,0x80,0x5f,0x00,0xc0,0xb3,0x00,0xa0,0x60,0x01,
 0x58,0xc0,0x02,0x26,0x80,0x0d,0x12,0x00,0x33,0x14,0x00,0x36,0x1c,0x00,0x1e,
 0x00,0x00,0x0c};
